<svg width="28" height="39" viewBox="0 0 28 39" fill="none" xmlns="http://www.w3.org/2000/svg">
<path d="M22.9095 3.22846C21.2998 1.88762 19.415 0.927646 17.3924 0.418575C15.3698 -0.0904961 13.2605 -0.135822 11.2184 0.285905C8.49933 0.842193 6.00467 2.20401 4.05096 4.19858C2.09725 6.19315 0.772544 8.73057 0.24492 11.4889C-0.140383 13.557 -0.0703673 15.6858 0.449973 17.7234C0.970313 19.761 1.92816 21.6572 3.25519 23.2768C4.48676 24.6844 5.19268 26.4844 5.25038 28.3643V33.6821C5.25038 35.0925 5.80355 36.4451 6.7882 37.4424C7.77286 38.4397 9.10834 39 10.5009 39H17.5015C18.894 39 20.2295 38.4397 21.2141 37.4424C22.1988 36.4451 22.752 35.0925 22.752 33.6821V28.7011C22.8107 26.6256 23.5635 24.6319 24.8872 23.0464C27.2063 20.1407 28.2996 16.4253 27.9292 12.7078C27.5589 8.99025 25.755 5.57096 22.9095 3.19301V3.22846ZM19.2516 33.6821C19.2516 34.1523 19.0673 34.6031 18.739 34.9356C18.4108 35.268 17.9657 35.4548 17.5015 35.4548H10.5009C10.0367 35.4548 9.59152 35.268 9.2633 34.9356C8.93509 34.6031 8.75069 34.1523 8.75069 33.6821V31.9095H19.2516V33.6821ZM22.1744 20.8483C20.4146 22.9624 19.3879 25.6026 19.2516 28.3643H15.7513V23.0464C15.7513 22.5763 15.5669 22.1254 15.2387 21.793C14.9105 21.4605 14.4653 21.2738 14.0012 21.2738C13.537 21.2738 13.0918 21.4605 12.7636 21.793C12.4354 22.1254 12.251 22.5763 12.251 23.0464V28.3643H8.75069C8.70452 25.6488 7.71275 23.0371 5.95044 20.9901C4.78771 19.5791 4.00582 17.887 3.68103 16.0788C3.35623 14.2706 3.49961 12.408 4.09717 10.6726C4.69474 8.93727 5.72611 7.38835 7.09071 6.17691C8.45531 4.96547 10.1066 4.13285 11.8835 3.76025C13.4106 3.44178 14.9885 3.47174 16.5028 3.84794C18.017 4.22414 19.4296 4.93714 20.6379 5.93517C21.8461 6.93321 22.8198 8.19123 23.4882 9.61791C24.1566 11.0446 24.503 12.6041 24.5021 14.1833C24.5151 16.6115 23.692 18.9684 22.1744 20.8483Z" fill="#F2672C"/>
</svg>
