<svg width="28" height="28" viewBox="0 0 28 28" fill="none" xmlns="http://www.w3.org/2000/svg">
<path d="M17.808 9.506L11.802 15.526L9.492 13.216C9.3665 13.0694 9.21205 12.9504 9.03836 12.8664C8.86467 12.7823 8.67549 12.7351 8.48268 12.7277C8.28987 12.7202 8.09761 12.7527 7.91795 12.8231C7.7383 12.8935 7.57513 13.0002 7.43869 13.1367C7.30226 13.2731 7.1955 13.4363 7.12511 13.6159C7.05473 13.7956 7.02224 13.9879 7.02969 14.1807C7.03713 14.3735 7.08436 14.5627 7.16839 14.7364C7.25242 14.91 7.37145 15.0645 7.518 15.19L10.808 18.494C10.9388 18.6238 11.094 18.7264 11.2645 18.7961C11.4351 18.8657 11.6178 18.9011 11.802 18.9C12.1693 18.8985 12.5212 18.7526 12.782 18.494L19.782 11.494C19.9132 11.3638 20.0174 11.209 20.0885 11.0384C20.1595 10.8678 20.1961 10.6848 20.1961 10.5C20.1961 10.3152 20.1595 10.1322 20.0885 9.96159C20.0174 9.79099 19.9132 9.63615 19.782 9.506C19.5197 9.24525 19.1649 9.09889 18.795 9.09889C18.4251 9.09889 18.0703 9.24525 17.808 9.506ZM14 0C11.2311 0 8.52431 0.821086 6.22202 2.35943C3.91973 3.89776 2.12532 6.08426 1.06569 8.64243C0.00606598 11.2006 -0.271181 14.0155 0.269012 16.7313C0.809205 19.447 2.14258 21.9416 4.10051 23.8995C6.05845 25.8574 8.55301 27.1908 11.2687 27.731C13.9845 28.2712 16.7994 27.9939 19.3576 26.9343C21.9157 25.8747 24.1022 24.0803 25.6406 21.778C27.1789 19.4757 28 16.7689 28 14C28 12.1615 27.6379 10.341 26.9343 8.64243C26.2307 6.94387 25.1995 5.40052 23.8995 4.1005C22.5995 2.80048 21.0561 1.76925 19.3576 1.06569C17.659 0.362121 15.8385 0 14 0ZM14 25.2C11.7849 25.2 9.61945 24.5431 7.77762 23.3125C5.93579 22.0818 4.50026 20.3326 3.65256 18.2861C2.80485 16.2395 2.58306 13.9876 3.01521 11.815C3.44737 9.6424 4.51406 7.64675 6.08041 6.0804C7.64676 4.51406 9.64241 3.44736 11.815 3.0152C13.9876 2.58305 16.2395 2.80485 18.2861 3.65255C20.3326 4.50025 22.0818 5.93578 23.3125 7.77761C24.5431 9.61944 25.2 11.7848 25.2 14C25.2 16.9704 24.02 19.8192 21.9196 21.9196C19.8192 24.02 16.9704 25.2 14 25.2Z" fill="#F0EBE8"/>
</svg>
