<svg width="20" height="20" viewBox="0 0 20 20" fill="none" xmlns="http://www.w3.org/2000/svg">
<path d="M9.99994 0.259155C7.62541 0.259254 5.3284 1.10427 3.5199 2.643C1.7114 4.18174 0.509437 6.31378 0.129069 8.65764C-0.251299 11.0015 0.214754 13.4042 1.44384 15.4359C2.67292 17.4676 4.58482 18.9956 6.83746 19.7466C7.33746 19.8342 7.52496 19.5342 7.52496 19.2716C7.52496 19.0342 7.51245 18.2466 7.51245 17.4092C4.99994 17.8716 4.34994 16.7967 4.14994 16.2342C3.92801 15.6871 3.57621 15.2023 3.12494 14.8217C2.77494 14.6342 2.27494 14.1717 3.11243 14.1592C3.43221 14.1939 3.73892 14.3052 4.00657 14.4836C4.27421 14.662 4.4949 14.9023 4.64994 15.1841C4.78671 15.4298 4.97062 15.6461 5.19113 15.8206C5.41163 15.9951 5.66441 16.1244 5.93497 16.2011C6.20553 16.2777 6.48855 16.3002 6.76781 16.2673C7.04708 16.2343 7.31711 16.1466 7.56242 16.0091C7.60571 15.5008 7.83228 15.0254 8.19994 14.6717C5.97494 14.4217 3.64994 13.5591 3.64994 9.73419C3.63588 8.74033 4.00262 7.77876 4.67494 7.04669C4.36922 6.1829 4.40499 5.23497 4.77494 4.39669C4.77494 4.39669 5.61241 4.13418 7.52494 5.42169C9.16122 4.97166 10.8886 4.97166 12.5249 5.42169C14.4374 4.12169 15.2749 4.39669 15.2749 4.39669C15.6449 5.23496 15.6807 6.18291 15.3749 7.04669C16.0493 7.77751 16.4163 8.73992 16.3999 9.73419C16.3999 13.5717 14.0624 14.4217 11.8374 14.6717C12.0761 14.9136 12.2599 15.204 12.3764 15.5232C12.4928 15.8424 12.5392 16.1829 12.5124 16.5217C12.5124 17.8592 12.4999 18.9342 12.4999 19.2717C12.4999 19.5342 12.6874 19.8467 13.1874 19.7467C15.4361 18.9896 17.3425 17.4579 18.5663 15.4252C19.7902 13.3925 20.2518 10.991 19.8688 8.64939C19.4858 6.3078 18.2831 4.17853 16.4754 2.64167C14.6677 1.10481 12.3726 0.26039 9.99994 0.259155Z" fill="#918D8B"/>
</svg>
