<svg width="21" height="21" viewBox="0 0 21 21" fill="none" xmlns="http://www.w3.org/2000/svg">
<path d="M15.4336 3.47245C15.1963 3.47245 14.9643 3.54283 14.7669 3.67469C14.5696 3.80655 14.4158 3.99396 14.325 4.21323C14.2341 4.4325 14.2104 4.67378 14.2567 4.90656C14.303 5.13934 14.4173 5.35316 14.5851 5.52098C14.7529 5.6888 14.9667 5.80309 15.1995 5.84939C15.4323 5.8957 15.6736 5.87193 15.8928 5.78111C16.1121 5.69028 16.2995 5.53647 16.4314 5.33914C16.5632 5.1418 16.6336 4.90979 16.6336 4.67245C16.6336 4.35419 16.5072 4.04897 16.2822 3.82392C16.0571 3.59888 15.7519 3.47245 15.4336 3.47245ZM20.0336 5.89245C20.0142 5.06275 19.8588 4.24185 19.5736 3.46245C19.3194 2.79558 18.9236 2.19173 18.4136 1.69245C17.9184 1.17988 17.3132 0.786628 16.6436 0.542451C15.8663 0.248612 15.0445 0.0896612 14.2136 0.0724511C13.1536 0.0124511 12.8136 0.0124512 10.0936 0.0124512C7.37363 0.0124512 7.03363 0.0124511 5.97363 0.0724511C5.14278 0.0896612 4.32097 0.248612 3.54363 0.542451C2.8753 0.7891 2.27056 1.18201 1.77363 1.69245C1.26105 2.18763 0.867804 2.79289 0.623628 3.46245C0.329789 4.23979 0.170838 5.0616 0.153628 5.89245C0.0936279 6.95245 0.0936279 7.29245 0.0936279 10.0125C0.0936279 12.7325 0.0936279 13.0725 0.153628 14.1325C0.170838 14.9633 0.329789 15.7851 0.623628 16.5625C0.867804 17.232 1.26105 17.8373 1.77363 18.3325C2.27056 18.8429 2.8753 19.2358 3.54363 19.4825C4.32097 19.7763 5.14278 19.9352 5.97363 19.9525C7.03363 20.0125 7.37363 20.0125 10.0936 20.0125C12.8136 20.0125 13.1536 20.0125 14.2136 19.9525C15.0445 19.9352 15.8663 19.7763 16.6436 19.4825C17.3132 19.2383 17.9184 18.845 18.4136 18.3325C18.9259 17.835 19.322 17.2306 19.5736 16.5625C19.8588 15.783 20.0142 14.9622 20.0336 14.1325C20.0336 13.0725 20.0936 12.7325 20.0936 10.0125C20.0936 7.29245 20.0936 6.95245 20.0336 5.89245ZM18.2336 14.0125C18.2263 14.6472 18.1114 15.2762 17.8936 15.8725C17.734 16.3076 17.4775 16.7009 17.1436 17.0225C16.8193 17.353 16.4269 17.6089 15.9936 17.7725C15.3973 17.9902 14.7684 18.1052 14.1336 18.1125C13.1336 18.1625 12.7636 18.1725 10.1336 18.1725C7.50363 18.1725 7.13363 18.1725 6.13363 18.1125C5.47452 18.1248 4.81822 18.0233 4.19363 17.8125C3.77941 17.6405 3.40498 17.3852 3.09363 17.0625C2.76172 16.7412 2.50847 16.3476 2.35363 15.9125C2.10948 15.3076 1.97407 14.6644 1.95363 14.0125C1.95363 13.0125 1.89363 12.6425 1.89363 10.0125C1.89363 7.38245 1.89363 7.01245 1.95363 6.01245C1.95811 5.36351 2.07658 4.7204 2.30363 4.11245C2.47968 3.69036 2.74989 3.31411 3.09363 3.01245C3.39744 2.66862 3.77292 2.39555 4.19363 2.21245C4.80318 1.99249 5.44563 1.87753 6.09363 1.87245C7.09363 1.87245 7.46363 1.81245 10.0936 1.81245C12.7236 1.81245 13.0936 1.81245 14.0936 1.87245C14.7284 1.87973 15.3573 1.9947 15.9536 2.21245C16.4081 2.3811 16.8159 2.6553 17.1436 3.01245C17.4713 3.31963 17.7274 3.69518 17.8936 4.11245C18.1159 4.72139 18.2309 5.36423 18.2336 6.01245C18.2836 7.01245 18.2936 7.38245 18.2936 10.0125C18.2936 12.6425 18.2836 13.0125 18.2336 14.0125ZM10.0936 4.88245C9.07944 4.88443 8.08859 5.18698 7.24628 5.75187C6.40398 6.31676 5.74801 7.11865 5.36126 8.0562C4.97452 8.99376 4.87435 10.0249 5.07342 11.0194C5.27249 12.0138 5.76186 12.927 6.4797 13.6434C7.19754 14.3599 8.11164 14.8475 9.10649 15.0446C10.1013 15.2417 11.1323 15.1396 12.0691 14.751C13.0059 14.3624 13.8065 13.7049 14.3698 12.8615C14.933 12.0181 15.2336 11.0266 15.2336 10.0125C15.235 9.33756 15.1028 8.66906 14.8449 8.04541C14.5869 7.42176 14.2082 6.85526 13.7305 6.3785C13.2528 5.90174 12.6856 5.52413 12.0614 5.26738C11.4373 5.01063 10.7685 4.87981 10.0936 4.88245ZM10.0936 13.3425C9.43502 13.3425 8.79119 13.1472 8.24358 12.7812C7.69596 12.4153 7.26915 11.8953 7.01711 11.2868C6.76507 10.6783 6.69912 10.0088 6.82761 9.3628C6.9561 8.71684 7.27325 8.12349 7.73896 7.65779C8.20467 7.19208 8.79802 6.87492 9.44398 6.74644C10.0899 6.61795 10.7595 6.68389 11.368 6.93593C11.9764 7.18797 12.4965 7.61479 12.8624 8.1624C13.2283 8.71002 13.4236 9.35384 13.4236 10.0125C13.4236 10.4498 13.3375 10.8828 13.1701 11.2868C13.0028 11.6908 12.7575 12.0579 12.4483 12.3671C12.1391 12.6763 11.772 12.9216 11.368 13.089C10.9639 13.2563 10.5309 13.3425 10.0936 13.3425Z" fill="#918D8B"/>
</svg>
