<svg width="20" height="21" viewBox="0 0 20 21" fill="none" xmlns="http://www.w3.org/2000/svg">
<path d="M14.6936 12.025C14.4936 11.925 13.1936 11.325 12.9936 11.225C12.7936 11.125 12.5936 11.125 12.3936 11.325C12.1936 11.525 11.7936 12.125 11.5936 12.325C11.4936 12.525 11.2936 12.525 11.0936 12.425C10.3936 12.125 9.69363 11.725 9.09363 11.225C8.59363 10.725 8.09363 10.125 7.69363 9.525C7.59363 9.325 7.69363 9.125 7.79363 9.025C7.89363 8.925 7.99363 8.725 8.19363 8.625C8.29363 8.525 8.39363 8.325 8.39363 8.225C8.49363 8.125 8.49363 7.925 8.39363 7.825C8.29363 7.725 7.79363 6.525 7.59363 6.025C7.49363 5.325 7.29363 5.325 7.09363 5.325H6.59363C6.39363 5.325 6.09363 5.525 5.99363 5.625C5.39363 6.225 5.09363 6.925 5.09363 7.725C5.19363 8.625 5.49363 9.525 6.09363 10.325C7.19363 11.925 8.59363 13.225 10.2936 14.025C10.7936 14.225 11.1936 14.425 11.6936 14.525C12.1936 14.725 12.6936 14.725 13.2936 14.625C13.9936 14.525 14.5936 14.025 14.9936 13.425C15.1936 13.025 15.1936 12.625 15.0936 12.225L14.6936 12.025ZM17.1936 2.925C13.2936 -0.975 6.99363 -0.975 3.09363 2.925C-0.106372 6.125 -0.706372 11.025 1.49363 14.925L0.0936279 20.025L5.39363 18.625C6.89363 19.425 8.49363 19.825 10.0936 19.825C15.5936 19.825 19.9936 15.425 19.9936 9.925C20.0936 7.325 18.9936 4.825 17.1936 2.925ZM14.4936 16.925C13.1936 17.725 11.6936 18.225 10.0936 18.225C8.59363 18.225 7.19363 17.825 5.89363 17.125L5.59363 16.925L2.49363 17.725L3.29363 14.725L3.09363 14.425C0.693628 10.425 1.89363 5.425 5.79363 2.925C9.69363 0.425 14.6936 1.725 17.0936 5.525C19.4936 9.425 18.3936 14.525 14.4936 16.925Z" fill="#918D8B"/>
</svg>
