<svg width="40" height="35" viewBox="0 0 40 35" fill="none" xmlns="http://www.w3.org/2000/svg">
<path d="M39.3332 23.757L30.3122 15.8659C30.501 15.06 30.5946 14.2391 30.5916 13.4164C30.5909 11.1604 29.9415 8.94106 28.7035 6.96338C27.4654 4.9857 25.6787 3.31355 23.5083 2.10148C21.338 0.889424 18.8542 0.176571 16.2864 0.0288173C13.7187 -0.118936 11.1499 0.303179 8.81744 1.25614C8.52194 1.37449 8.26385 1.55429 8.06561 1.77992C7.86735 2.00556 7.73493 2.27021 7.67984 2.5509C7.62496 2.82803 7.64709 3.11267 7.74437 3.3807C7.84165 3.64873 8.01121 3.89225 8.23866 4.09062L16.9204 11.6842L13.328 14.8336L4.66618 7.22253C4.43799 7.02622 4.15936 6.88085 3.85372 6.79863C3.54808 6.71642 3.22438 6.69978 2.90988 6.75012C2.59171 6.79665 2.29115 6.9101 2.03393 7.08074C1.77672 7.25139 1.57052 7.47414 1.43298 7.72994C0.34233 9.78144 -0.138745 12.0414 0.0345111 14.2997C0.207767 16.558 1.02973 18.7412 2.42392 20.6462C3.81812 22.5511 5.73926 24.1161 8.00863 25.1953C10.278 26.2745 12.8219 26.833 15.4036 26.8189C16.3421 26.8215 17.2784 26.7394 18.1977 26.5739L27.1988 34.4824C27.3843 34.6464 27.605 34.7766 27.8482 34.8654C28.0914 34.9543 28.3523 35 28.6158 35C28.8792 35 29.1401 34.9543 29.3833 34.8654C29.6265 34.7766 29.8473 34.6464 30.0328 34.4824C30.2199 34.3198 30.3683 34.1263 30.4697 33.9131C30.571 33.6999 30.6231 33.4712 30.6231 33.2402C30.6231 33.0092 30.571 32.7805 30.4697 32.5673C30.3683 32.3541 30.2199 32.1606 30.0328 31.9979L20.2534 23.4245C20.009 23.2117 19.7059 23.0579 19.3737 22.9782C19.0414 22.8985 18.6913 22.8955 18.3574 22.9696C17.3937 23.1958 16.4011 23.3134 15.4036 23.3195C13.9108 23.3311 12.4302 23.0836 11.047 22.5913C9.66386 22.099 8.40546 21.3716 7.34432 20.4511C6.28319 19.5306 5.4403 18.4351 4.8642 17.2278C4.2881 16.0204 3.99018 14.7251 3.98761 13.4164C3.98502 12.8303 4.03843 12.245 4.14727 11.6667L11.9708 18.5429C12.1563 18.7069 12.3771 18.8371 12.6203 18.9259C12.8635 19.0147 13.1244 19.0605 13.3878 19.0605C13.6513 19.0605 13.9122 19.0147 14.1554 18.9259C14.3986 18.8371 14.6193 18.7069 14.8048 18.5429L21.1515 12.9265C21.5112 12.6002 21.7123 12.1642 21.7123 11.7104C21.7123 11.2567 21.5112 10.8207 21.1515 10.4944L13.3878 3.6357C14.0476 3.54124 14.7151 3.49442 15.3836 3.49573C18.3814 3.50036 21.2546 4.54762 23.3725 6.4076C25.4904 8.26758 26.6799 10.7883 26.6798 13.4164C26.6729 14.2909 26.5387 15.1611 26.2807 16.0059C26.1962 16.2987 26.1996 16.6056 26.2905 16.8969C26.3815 17.1882 26.5568 17.4538 26.7996 17.6681L36.579 26.2415C36.9548 26.571 37.4646 26.7561 37.996 26.7561C38.5275 26.7561 39.0372 26.571 39.4131 26.2415C39.7889 25.912 40 25.4652 40 24.9992C40 24.5333 39.7889 24.0864 39.4131 23.757H39.3332Z" fill="#F0EBE8"/>
</svg>
